<!DOCTYPE svg PUBLIC "-//W3C//DTD SVG 20010904//EN" "http://www.w3.org/TR/2001/REC-SVG-20010904/DTD/svg10.dtd">
<svg version="1.0" xmlns="http://www.w3.org/2000/svg" width="512px" height="512px" viewBox="0 0 3200 3040" preserveAspectRatio="xMidYMid meet">
<g id="layer101" fill="#000000" stroke="none">
<path d="M0 1520 l0 -1520 1600 0 1600 0 0 1520 0 1520 -1600 0 -1600 0 0 -1520z"/>
</g>
<g id="layer102" fill="#743481" stroke="none">
<path d="M1442 2867 l-22 -23 0 -1325 0 -1326 23 -21 23 -22 745 0 746 0 21 23 22 23 0 1325 0 1326 -23 21 -23 22 -745 0 -746 0 -21 -23z m568 -919 l0 -373 26 42 c14 24 110 166 213 315 103 150 206 299 227 330 l39 57 203 1 c160 0 202 -3 195 -12 -4 -7 -131 -182 -283 -388 -152 -206 -279 -380 -283 -386 -3 -6 113 -170 258 -365 146 -195 265 -357 265 -361 0 -5 -84 -8 -187 -8 l-188 0 -42 63 c-23 34 -122 180 -220 324 -98 144 -188 279 -200 300 l-22 38 -1 -362 0 -363 -160 0 -160 0 0 760 0 760 160 0 160 0 0 -372z"/>
</g>
<g id="layer103" fill="#ffffff" stroke="none">
<path d="M426 2304 c-8 -20 -8 -1468 0 -1488 5 -14 53 -16 435 -16 l429 0 0 130 0 130 -270 0 -270 0 2 197 3 198 243 3 242 2 0 130 0 130 -245 0 -245 0 0 300 0 300 -159 0 c-136 0 -160 -2 -165 -16z"/>
</g>


</svg>